Coordinates
version=1
nRows=54
nColumns=12
inDegrees=yes

Units are S.I. units (second, meters, Newtons, ...)
Angles are in degrees

endheader
time	SC_y	SC_z	SC_x	AC_y	AC_z	AC_x	GH_y	GH_z	GH_yy	EL_x	PS_y
       0.0              -47.74          7.786          64.45          39.26         -17.92         -17.05          91.01          71.48          135.2           26.2          45.16
   0.01924              -47.74          7.787          64.44          39.26         -17.91         -17.05          90.99          71.47          135.1           26.2          45.17
   0.03848              -47.73          7.788          64.43          39.26         -17.91         -17.05          90.96          71.46          135.1          26.21          45.18
   0.05773              -47.72          7.789          64.42          39.26         -17.91         -17.05          90.93          71.44          135.0          26.21          45.19
   0.07697              -47.72           7.79          64.41          39.26          -17.9         -17.05           90.9          71.43          135.0          26.22           45.2
   0.09621              -47.71          7.791           64.4          39.26          -17.9         -17.05          90.87          71.42          134.9          26.22          45.22
    0.1155              -47.71          7.792          64.39          39.26          -17.9         -17.05          90.84           71.4          134.9          26.23          45.23
    0.1347               -47.7          7.793          64.38          39.26         -17.89         -17.04           90.8          71.39          134.8          26.24          45.25
    0.1539              -47.69          7.794          64.36          39.26         -17.89         -17.04          90.76          71.37          134.7          26.25          45.26
    0.1732              -47.68          7.796          64.35          39.26         -17.88         -17.04          90.72          71.35          134.7          26.25          45.28
    0.1924              -47.67          7.797          64.33          39.26         -17.88         -17.04          90.67          71.33          134.6          26.26           45.3
    0.2117              -47.66          7.799          64.32          39.26         -17.87         -17.04          90.63          71.31          134.5          26.27          45.32
    0.2309              -47.65          7.801           64.3          39.26         -17.87         -17.04          90.57          71.29          134.4          26.28          45.34
    0.2502              -47.64          7.803          64.28          39.27         -17.86         -17.04          90.52          71.27          134.3          26.29          45.36
    0.2694              -47.63          7.805          64.26          39.27         -17.86         -17.04          90.46          71.24          134.2           26.3          45.39
    0.2886              -47.62          7.807          64.24          39.27         -17.85         -17.04          90.39          71.21          134.1          26.32          45.42
    0.3079               -47.6          7.809          64.21          39.27         -17.84         -17.03          90.32          71.18          134.0          26.33          45.45
    0.3271              -47.59          7.812          64.19          39.27         -17.83         -17.03          90.24          71.15          133.8          26.34          45.48
    0.3464              -47.57          7.815          64.16          39.27         -17.82         -17.03          90.15          71.11          133.7          26.36          45.51
    0.3656              -47.55          7.818          64.12          39.27         -17.81         -17.03          90.06          71.07          133.5          26.38          45.55
    0.3848              -47.53          7.822          64.09          39.28          -17.8         -17.03          89.96          71.03          133.4           26.4          45.59
    0.4041              -47.51          7.826          64.05          39.28         -17.79         -17.03          89.85          70.98          133.2          26.42          45.64
    0.4233              -47.48           7.83          64.01          39.28         -17.78         -17.02          89.72          70.93          133.0          26.44          45.69
    0.4426              -47.46          7.835          63.96          39.28         -17.76         -17.02          89.58          70.87          132.7          26.47          45.75
    0.4618              -47.43           7.84          63.91          39.29         -17.75         -17.02          89.43          70.81          132.5           26.5          45.81
    0.4811              -47.39          7.846          63.85          39.29         -17.73         -17.01          89.26          70.73          132.2          26.53          45.88
    0.5003              -47.35          7.852          63.78          39.29         -17.71         -17.01          89.06          70.65          131.8          26.57          45.96
    0.5195              -47.31           7.86          63.71           39.3         -17.68          -17.0          88.85          70.56          131.5          26.61          46.05
    0.5388              -47.26          7.868          63.63           39.3         -17.66          -17.0           88.6          70.45          131.1          26.66          46.16
     0.558              -47.21          7.877          63.53          39.31         -17.63         -16.99          88.33          70.34          130.6          26.71          46.27
    0.5773              -47.14          7.888          63.42          39.32         -17.59         -16.99          88.01           70.2          130.0          26.77           46.4
    0.5965              -47.07          7.901           63.3          39.32         -17.55         -16.98          87.65          70.05          129.4          26.84          46.55
    0.6158              -46.99          7.915          63.16          39.33         -17.51         -16.97          87.23          69.87          128.7          26.92          46.73
     0.635              -46.89          7.932          62.99          39.34         -17.46         -16.96          86.74          69.66          127.9          27.01          46.93
    0.6542              -46.78          7.951           62.8          39.35         -17.39         -16.95          86.17          69.42          126.9          27.12          47.16
    0.6735              -46.64          7.974          62.57          39.37         -17.32         -16.94           85.5          69.13          125.8          27.25          47.44
    0.6927              -46.48          8.001          62.29          39.38         -17.24         -16.92           84.7          68.79          124.4           27.4          47.77
     0.712              -46.29          8.034          61.97           39.4         -17.13          -16.9          83.74          68.39          122.8          27.59          48.17
    0.7312              -46.06          8.073          61.57          39.43         -17.01         -16.87          82.58          67.89          120.8          27.81          48.65
    0.7505              -45.78          8.122          61.09          39.46         -16.86         -16.85          81.17          67.29          118.4          28.08          49.24
    0.7697              -45.43          8.181          60.49          39.49         -16.67         -16.81          79.42          66.55          115.4          28.41          49.96
    0.7889               -45.0          8.256          59.75          39.54         -16.43         -16.76          77.24          65.62          111.7          28.83          50.86
    0.8082              -44.46          8.349          58.81          39.59         -16.14         -16.71           74.5          64.45          107.0          29.35           52.0
    0.8274              -43.76          8.468          57.62          39.66         -15.76         -16.64          71.01          62.97          101.1          30.02          53.44
    0.8467              -42.87           8.62          56.09          39.75         -15.28         -16.54          66.55          61.07          93.44          30.87          55.29
    0.8659              -41.73          8.816          54.13          39.87         -14.66         -16.42          60.82          58.63          83.67          31.97          57.67
    0.8852              -40.28          9.066          51.63          40.02         -13.87         -16.27           53.5          55.52          71.19          33.37           60.7
    0.9044              -38.45          9.379          48.49          40.21         -12.88         -16.08           44.3           51.6          55.49          35.13          64.51
    0.9236              -36.22          9.762          44.66          40.43         -11.67         -15.85          33.08          46.83          36.37          37.27          69.15
    0.9429              -33.63          10.21          40.22           40.7         -10.27         -15.58          20.09           41.3           14.2          39.75          74.54
    0.9621              -30.83          10.69          35.41          40.99         -8.758         -15.29          6.012          35.31         -9.803          42.44          80.37
    0.9814              -28.03          11.17           30.6          41.27         -7.242          -15.0         -8.062          29.32         -33.81          45.13           86.2
     1.001              -25.45          11.61          26.16          41.54         -5.841         -14.73         -21.06          23.79         -55.97          47.62          91.58
      1.02              -23.22          11.99          22.33          41.77         -4.633          -14.5         -32.27          19.02          -75.1          49.76          96.23
